<svg xmlns="http://www.w3.org/2000/svg" viewBox="0 0 512 512" class="block h-10 w-auto fill-current text-gray-600">
    <g id="canvas" stroke="none" stroke-width="1" fill="none" fill-rule="evenodd">
        <g id="box" transform="translate(19.000000, 19.000000)" fill-rule="nonzero">
            <polygon id="Path" fill="#202425" opacity="0.01" points="0 0 473 0 473 473 0 473"></polygon>
            <path d="M157.666667,31.5333335 C140.251288,31.5333335 126.133333,45.6512877 126.133333,63.0666665 L126.133333,157.666667 C126.133333,175.082046 140.251287,189.2 157.666667,189.2 L315.333333,189.2 C332.748713,189.2 346.866667,175.082046 346.866667,157.666667 L346.866667,63.0666665 C346.866667,45.6512877 332.748712,31.5333335 315.333333,31.5333335 L157.666667,31.5333335 Z M157.666667,63.0666665 L315.333333,63.0666665 L315.333333,157.666667 L157.666667,157.666667 L157.666667,63.0666665 Z M31.5333335,283.8 L31.5333335,425.7 C31.5333335,434.407689 38.5923105,441.466667 47.3,441.466667 L425.7,441.466667 C434.407689,441.466667 441.466667,434.407689 441.466667,425.7 L441.466667,283.8 C441.466667,275.092311 434.407689,268.033333 425.7,268.033333 L47.3,268.033333 C38.5923105,268.033333 31.5333335,275.092311 31.5333335,283.8 Z" id="Shape" fill="#009A61"></path>
            <path d="M31.5333335,126.133333 C31.5333335,121.951753 33.1944595,117.94144 36.151283,114.984616 C39.1081066,112.027793 43.11842,110.366667 47.3,110.366667 L425.7,110.366667 C429.88158,110.366667 433.891893,112.027793 436.848717,114.984616 C439.805541,117.94144 441.466667,121.951753 441.466667,126.133333 L441.466667,236.5 C441.466667,245.207689 434.407689,252.266667 425.7,252.266667 L47.3,252.266667 C38.5923105,252.266667 31.5333335,245.207689 31.5333335,236.5 L31.5333335,126.133333 Z" id="Path" fill="#FFAA44"></path>
            <path d="M173.433333,236.5 C173.433333,227.792311 180.492311,220.733333 189.2,220.733333 L283.8,220.733333 C292.507689,220.733333 299.566667,227.792311 299.566667,236.5 L299.566667,283.8 C299.566667,292.507689 292.507689,299.566667 283.8,299.566667 L189.2,299.566667 C180.492311,299.566667 173.433333,292.507689 173.433333,283.8 L173.433333,236.5 L173.433333,236.5 Z" id="Path" fill="#FFFFFF"></path>
        </g>
    </g>
</svg>
