<?xml version="1.0" encoding="UTF-8" standalone="no"?><svg xmlns="http://www.w3.org/2000/svg" xmlns:xlink="http://www.w3.org/1999/xlink" contentScriptType="application/ecmascript" contentStyleType="text/css" height="441px" preserveAspectRatio="none" style="width:542px;height:441px;" version="1.1" viewBox="0 0 542 441" width="542px" zoomAndPan="magnify"><defs><filter height="300%" id="f1izhhh1687x9y" width="300%" x="-1" y="-1"><feGaussianBlur result="blurOut" stdDeviation="2.0"/><feColorMatrix in="blurOut" result="blurOut2" type="matrix" values="0 0 0 0 0 0 0 0 0 0 0 0 0 0 0 0 0 0 .4 0"/><feOffset dx="4.0" dy="4.0" in="blurOut2" result="blurOut3"/><feBlend in="SourceGraphic" in2="blurOut3" mode="normal"/></filter></defs><g><!--MD5=[7f8edb35296d44f3efeaf8ae704337ff]
cluster 数据--><polygon fill="#FFFFFF" filter="url(#f1izhhh1687x9y)" points="423,6,457,6,464,29.6094,525,29.6094,525,434,423,434,423,6" style="stroke:#000000;stroke-width:1.5;"/><line style="stroke:#000000;stroke-width:1.5;" x1="423" x2="464" y1="29.6094" y2="29.6094"/><text fill="#000000" font-family="sans-serif" font-size="14" font-weight="bold" lengthAdjust="spacingAndGlyphs" textLength="28" x="427" y="22.5332">数据</text><!--MD5=[6d4f7208dc63906daf3fb74ad11771f6]
cluster 查询工厂--><polygon fill="#FFFFFF" filter="url(#f1izhhh1687x9y)" points="16,6,78,6,85,29.6094,399,29.6094,399,298,16,298,16,6" style="stroke:#000000;stroke-width:1.5;"/><line style="stroke:#000000;stroke-width:1.5;" x1="16" x2="85" y1="29.6094" y2="29.6094"/><text fill="#000000" font-family="sans-serif" font-size="14" font-weight="bold" lengthAdjust="spacingAndGlyphs" textLength="56" x="20" y="22.5332">查询工厂</text><!--MD5=[3fd616f346a44cd59a91eb10b19e157c]
class User--><rect codeLine="4" fill="#FEFECE" filter="url(#f1izhhh1687x9y)" height="89.5078" id="User" style="stroke:#A80036;stroke-width:1.5;" width="69" x="439.5" y="42"/><ellipse cx="459" cy="58" fill="#ADD1B2" rx="11" ry="11" style="stroke:#A80036;stroke-width:1.0;"/><path d="M461,54.5 Q461.2031,54 461.4375,53.75 Q461.6719,53.5 461.9375,53.5 Q462.4063,53.5 462.7031,53.7813 Q463,54.0625 463,54.7188 L463,56.2813 Q463,56.9375 462.7188,57.2188 Q462.4375,57.5 462,57.5 Q461.6094,57.5 461.3594,57.3281 Q461.1094,57.1563 461,56.7031 Q460.9531,56.3906 460.7813,56.2188 Q460.4688,55.8906 459.9063,55.7031 Q459.3438,55.5 458.7813,55.5 Q458.0781,55.5 457.4844,55.7813 Q456.9063,56.0625 456.4531,56.6875 Q456,57.3125 456,58.1719 L456,59.0938 Q456,60.125 456.8438,60.8125 Q457.6875,61.5 459.1875,61.5 Q460.0781,61.5 460.7031,61.2969 Q461.0625,61.1875 461.4688,60.8281 Q461.7344,60.625 461.875,60.5625 Q462.0156,60.5 462.1875,60.5 Q462.5156,60.5 462.75,60.7656 Q463,61.0156 463,61.375 Q463,61.7188 462.6563,62.125 Q462.1563,62.7188 461.3594,63.0469 Q460.3125,63.5 459.0313,63.5 Q457.5313,63.5 456.3281,62.9063 Q455.3594,62.4375 454.6719,61.4219 Q454,60.4063 454,59.2031 L454,58.1094 Q454,56.8594 454.5938,55.7656 Q455.2031,54.6719 456.25,54.0938 Q457.3125,53.5 458.5,53.5 Q459.2188,53.5 459.8438,53.75 Q460.4688,54 461,54.5 Z " fill="#000000"/><text fill="#000000" font-family="sans-serif" font-size="12" lengthAdjust="spacingAndGlyphs" textLength="27" x="474" y="62.9102">User</text><line style="stroke:#A80036;stroke-width:1.5;" x1="440.5" x2="507.5" y1="74" y2="74"/><text fill="#000000" font-family="sans-serif" font-size="11" lengthAdjust="spacingAndGlyphs" textLength="35" x="445.5" y="89.4189">Long id</text><text fill="#000000" font-family="sans-serif" font-size="11" lengthAdjust="spacingAndGlyphs" textLength="57" x="445.5" y="103.2549">String name</text><text fill="#000000" font-family="sans-serif" font-size="11" lengthAdjust="spacingAndGlyphs" textLength="46" x="445.5" y="117.0908">Dept dept</text><line style="stroke:#A80036;stroke-width:1.5;" x1="440.5" x2="507.5" y1="123.5078" y2="123.5078"/><!--MD5=[53eedffb5fe603a0ca72f28e844603c8]
class Dept--><rect codeLine="11" fill="#FEFECE" filter="url(#f1izhhh1687x9y)" height="89.5078" id="Dept" style="stroke:#A80036;stroke-width:1.5;" width="69" x="439.5" y="192"/><ellipse cx="459.45" cy="208" fill="#ADD1B2" rx="11" ry="11" style="stroke:#A80036;stroke-width:1.0;"/><path d="M461.45,204.5 Q461.6531,204 461.8875,203.75 Q462.1219,203.5 462.3875,203.5 Q462.8563,203.5 463.1531,203.7813 Q463.45,204.0625 463.45,204.7188 L463.45,206.2813 Q463.45,206.9375 463.1688,207.2188 Q462.8875,207.5 462.45,207.5 Q462.0594,207.5 461.8094,207.3281 Q461.5594,207.1563 461.45,206.7031 Q461.4031,206.3906 461.2313,206.2188 Q460.9188,205.8906 460.3563,205.7031 Q459.7938,205.5 459.2313,205.5 Q458.5281,205.5 457.9344,205.7813 Q457.3563,206.0625 456.9031,206.6875 Q456.45,207.3125 456.45,208.1719 L456.45,209.0938 Q456.45,210.125 457.2938,210.8125 Q458.1375,211.5 459.6375,211.5 Q460.5281,211.5 461.1531,211.2969 Q461.5125,211.1875 461.9188,210.8281 Q462.1844,210.625 462.325,210.5625 Q462.4656,210.5 462.6375,210.5 Q462.9656,210.5 463.2,210.7656 Q463.45,211.0156 463.45,211.375 Q463.45,211.7188 463.1063,212.125 Q462.6063,212.7188 461.8094,213.0469 Q460.7625,213.5 459.4813,213.5 Q457.9813,213.5 456.7781,212.9063 Q455.8094,212.4375 455.1219,211.4219 Q454.45,210.4063 454.45,209.2031 L454.45,208.1094 Q454.45,206.8594 455.0438,205.7656 Q455.6531,204.6719 456.7,204.0938 Q457.7625,203.5 458.95,203.5 Q459.6688,203.5 460.2938,203.75 Q460.9188,204 461.45,204.5 Z " fill="#000000"/><text fill="#000000" font-family="sans-serif" font-size="12" lengthAdjust="spacingAndGlyphs" textLength="26" x="474.55" y="212.9102">Dept</text><line style="stroke:#A80036;stroke-width:1.5;" x1="440.5" x2="507.5" y1="224" y2="224"/><text fill="#000000" font-family="sans-serif" font-size="11" lengthAdjust="spacingAndGlyphs" textLength="35" x="445.5" y="239.4189">Long id</text><text fill="#000000" font-family="sans-serif" font-size="11" lengthAdjust="spacingAndGlyphs" textLength="57" x="445.5" y="253.2549">String name</text><text fill="#000000" font-family="sans-serif" font-size="11" lengthAdjust="spacingAndGlyphs" textLength="37" x="445.5" y="267.0908">Org org</text><line style="stroke:#A80036;stroke-width:1.5;" x1="440.5" x2="507.5" y1="273.5078" y2="273.5078"/><!--MD5=[378218e1a65c16d4c481c9a422951b37]
class Org--><rect codeLine="17" fill="#FEFECE" filter="url(#f1izhhh1687x9y)" height="75.6719" id="Org" style="stroke:#A80036;stroke-width:1.5;" width="69" x="439.5" y="342"/><ellipse cx="462.15" cy="358" fill="#ADD1B2" rx="11" ry="11" style="stroke:#A80036;stroke-width:1.0;"/><path d="M464.15,354.5 Q464.3531,354 464.5875,353.75 Q464.8219,353.5 465.0875,353.5 Q465.5563,353.5 465.8531,353.7813 Q466.15,354.0625 466.15,354.7188 L466.15,356.2813 Q466.15,356.9375 465.8688,357.2188 Q465.5875,357.5 465.15,357.5 Q464.7594,357.5 464.5094,357.3281 Q464.2594,357.1563 464.15,356.7031 Q464.1031,356.3906 463.9313,356.2188 Q463.6188,355.8906 463.0563,355.7031 Q462.4938,355.5 461.9313,355.5 Q461.2281,355.5 460.6344,355.7813 Q460.0563,356.0625 459.6031,356.6875 Q459.15,357.3125 459.15,358.1719 L459.15,359.0938 Q459.15,360.125 459.9938,360.8125 Q460.8375,361.5 462.3375,361.5 Q463.2281,361.5 463.8531,361.2969 Q464.2125,361.1875 464.6188,360.8281 Q464.8844,360.625 465.025,360.5625 Q465.1656,360.5 465.3375,360.5 Q465.6656,360.5 465.9,360.7656 Q466.15,361.0156 466.15,361.375 Q466.15,361.7188 465.8063,362.125 Q465.3063,362.7188 464.5094,363.0469 Q463.4625,363.5 462.1813,363.5 Q460.6813,363.5 459.4781,362.9063 Q458.5094,362.4375 457.8219,361.4219 Q457.15,360.4063 457.15,359.2031 L457.15,358.1094 Q457.15,356.8594 457.7438,355.7656 Q458.3531,354.6719 459.4,354.0938 Q460.4625,353.5 461.65,353.5 Q462.3688,353.5 462.9938,353.75 Q463.6188,354 464.15,354.5 Z " fill="#000000"/><text fill="#000000" font-family="sans-serif" font-size="12" lengthAdjust="spacingAndGlyphs" textLength="20" x="477.85" y="362.9102">Org</text><line style="stroke:#A80036;stroke-width:1.5;" x1="440.5" x2="507.5" y1="374" y2="374"/><text fill="#000000" font-family="sans-serif" font-size="11" lengthAdjust="spacingAndGlyphs" textLength="35" x="445.5" y="389.4189">Long id</text><text fill="#000000" font-family="sans-serif" font-size="11" lengthAdjust="spacingAndGlyphs" textLength="57" x="445.5" y="403.2549">String name</text><line style="stroke:#A80036;stroke-width:1.5;" x1="440.5" x2="507.5" y1="409.6719" y2="409.6719"/><!--MD5=[44996bf128796e476d71d3ecda1ae27d]
class UserPredicateFactory--><rect codeLine="23" fill="#FEFECE" filter="url(#f1izhhh1687x9y)" height="89.5078" id="UserPredicateFactory" style="stroke:#A80036;stroke-width:1.5;" width="150" x="32" y="42"/><ellipse cx="47" cy="58" fill="#A9DCDF" rx="11" ry="11" style="stroke:#A80036;stroke-width:1.0;"/><path d="M48.75,59.5 L45.4531,59.5 L45.0156,60.5 L45.0156,60.5 L45.4844,60.5 L46,61.125 L46,61.5 L46,61.875 L45.4844,62.5 L45.0156,62.5 L43.125,62.5 L42.5156,62.5 L42,61.875 L42,61.5 L42,61.125 L42.5156,60.5 L43.125,60.5 L45.4375,54.5 L44.5625,54.5 L43.5156,54.5 L43,53.875 L43,53.5 L43,53.125 L43.5156,52.5 L44.5625,52.5 L48.2344,52.5 L50.9219,60.5 L51.4844,60.5 L51.4844,60.5 L52,61.125 L52,61.5 L52,61.875 L51.4844,62.5 L50.9219,62.5 L49.0313,62.5 L48.5156,62.5 L48,61.875 L48,61.5 L48,61.125 L48.5156,60.5 L49.0313,60.5 L49.0313,60.5 L48.75,59.5 Z M48.2031,57.5 L47,53.9219 L45.9688,57.5 L48.2031,57.5 Z " fill="#000000"/><text fill="#000000" font-family="sans-serif" font-size="12" font-style="italic" lengthAdjust="spacingAndGlyphs" textLength="118" x="61" y="62.9102">UserPredicateFactory</text><line style="stroke:#A80036;stroke-width:1.5;" x1="33" x2="181" y1="74" y2="74"/><line style="stroke:#A80036;stroke-width:1.5;" x1="33" x2="181" y1="82" y2="82"/><text fill="#000000" font-family="sans-serif" font-size="11" lengthAdjust="spacingAndGlyphs" textLength="91" x="38" y="97.4189">getUserPredicate()</text><text fill="#000000" font-family="sans-serif" font-size="11" lengthAdjust="spacingAndGlyphs" textLength="90" x="38" y="111.2549">getDeptPredicate()</text><text fill="#000000" font-family="sans-serif" font-size="11" lengthAdjust="spacingAndGlyphs" textLength="86" x="38" y="125.0908">getOrgPredicate()</text><!--MD5=[f87e43582a2785596ecd71be3103ea9a]
class DeptPredicateFactory--><rect codeLine="28" fill="#FEFECE" filter="url(#f1izhhh1687x9y)" height="89.5078" id="DeptPredicateFactory" style="stroke:#A80036;stroke-width:1.5;" width="165" x="217.5" y="42"/><ellipse cx="239.25" cy="58" fill="#A9DCDF" rx="11" ry="11" style="stroke:#A80036;stroke-width:1.0;"/><path d="M241,59.5 L237.7031,59.5 L237.2656,60.5 L237.2656,60.5 L237.7344,60.5 L238.25,61.125 L238.25,61.5 L238.25,61.875 L237.7344,62.5 L237.2656,62.5 L235.375,62.5 L234.7656,62.5 L234.25,61.875 L234.25,61.5 L234.25,61.125 L234.7656,60.5 L235.375,60.5 L237.6875,54.5 L236.8125,54.5 L235.7656,54.5 L235.25,53.875 L235.25,53.5 L235.25,53.125 L235.7656,52.5 L236.8125,52.5 L240.4844,52.5 L243.1719,60.5 L243.7344,60.5 L243.7344,60.5 L244.25,61.125 L244.25,61.5 L244.25,61.875 L243.7344,62.5 L243.1719,62.5 L241.2813,62.5 L240.7656,62.5 L240.25,61.875 L240.25,61.5 L240.25,61.125 L240.7656,60.5 L241.2813,60.5 L241.2813,60.5 L241,59.5 Z M240.4531,57.5 L239.25,53.9219 L238.2188,57.5 L240.4531,57.5 Z " fill="#000000"/><text fill="#000000" font-family="sans-serif" font-size="12" font-style="italic" lengthAdjust="spacingAndGlyphs" textLength="118" x="254.75" y="62.9102">DeptPredicateFactory</text><line style="stroke:#A80036;stroke-width:1.5;" x1="218.5" x2="381.5" y1="74" y2="74"/><line style="stroke:#A80036;stroke-width:1.5;" x1="218.5" x2="381.5" y1="82" y2="82"/><text fill="#000000" font-family="sans-serif" font-size="11" lengthAdjust="spacingAndGlyphs" textLength="153" x="223.5" y="97.4189">getUserPredicate() *交叉连接点</text><text fill="#000000" font-family="sans-serif" font-size="11" lengthAdjust="spacingAndGlyphs" textLength="90" x="223.5" y="111.2549">getDeptPredicate()</text><text fill="#000000" font-family="sans-serif" font-size="11" lengthAdjust="spacingAndGlyphs" textLength="86" x="223.5" y="125.0908">getOrgPredicate()</text><!--MD5=[2fdd558008f2aa6937893101c021174a]
class OrgPredicateFactory--><rect codeLine="33" fill="#FEFECE" filter="url(#f1izhhh1687x9y)" height="89.5078" id="OrgPredicateFactory" style="stroke:#A80036;stroke-width:1.5;" width="165" x="32.5" y="192"/><ellipse cx="56.95" cy="208" fill="#A9DCDF" rx="11" ry="11" style="stroke:#A80036;stroke-width:1.0;"/><path d="M58.7,209.5 L55.4031,209.5 L54.9656,210.5 L54.9656,210.5 L55.4344,210.5 L55.95,211.125 L55.95,211.5 L55.95,211.875 L55.4344,212.5 L54.9656,212.5 L53.075,212.5 L52.4656,212.5 L51.95,211.875 L51.95,211.5 L51.95,211.125 L52.4656,210.5 L53.075,210.5 L55.3875,204.5 L54.5125,204.5 L53.4656,204.5 L52.95,203.875 L52.95,203.5 L52.95,203.125 L53.4656,202.5 L54.5125,202.5 L58.1844,202.5 L60.8719,210.5 L61.4344,210.5 L61.4344,210.5 L61.95,211.125 L61.95,211.5 L61.95,211.875 L61.4344,212.5 L60.8719,212.5 L58.9813,212.5 L58.4656,212.5 L57.95,211.875 L57.95,211.5 L57.95,211.125 L58.4656,210.5 L58.9813,210.5 L58.9813,210.5 L58.7,209.5 Z M58.1531,207.5 L56.95,203.9219 L55.9188,207.5 L58.1531,207.5 Z " fill="#000000"/><text fill="#000000" font-family="sans-serif" font-size="12" font-style="italic" lengthAdjust="spacingAndGlyphs" textLength="112" x="73.05" y="212.9102">OrgPredicateFactory</text><line style="stroke:#A80036;stroke-width:1.5;" x1="33.5" x2="196.5" y1="224" y2="224"/><line style="stroke:#A80036;stroke-width:1.5;" x1="33.5" x2="196.5" y1="232" y2="232"/><text fill="#000000" font-family="sans-serif" font-size="11" lengthAdjust="spacingAndGlyphs" textLength="153" x="38.5" y="247.4189">getUserPredicate() *交叉连接点</text><text fill="#000000" font-family="sans-serif" font-size="11" lengthAdjust="spacingAndGlyphs" textLength="152" x="38.5" y="261.2549">getDeptPredicate() *交叉连接点</text><text fill="#000000" font-family="sans-serif" font-size="11" lengthAdjust="spacingAndGlyphs" textLength="86" x="38.5" y="275.0908">getOrgPredicate()</text><!--MD5=[1dc137b149c3e846850767d44e48d4b9]
reverse link User to Dept--><path codeLine="40" d="M474,145.27 C474,160.76 474,177.27 474,191.91 " fill="none" id="User-backto-Dept" style="stroke:#A80036;stroke-width:1.0;"/><polygon fill="#A80036" points="474,132,470,138,474,144,478,138,474,132" style="stroke:#A80036;stroke-width:1.0;"/><!--MD5=[69b509b7dd82db83b2b8383e81f4fd4b]
reverse link Dept to Org--><path codeLine="41" d="M474,295.56 C474,311.08 474,327.47 474,341.57 " fill="none" id="Dept-backto-Org" style="stroke:#A80036;stroke-width:1.0;"/><polygon fill="#A80036" points="474,282.23,470,288.23,474,294.23,478,288.23,474,282.23" style="stroke:#A80036;stroke-width:1.0;"/><!--MD5=[beb8c581edc77c21190cfad33453900a]
link UserPredicateFactory to DeptPredicateFactory--><!--MD5=[5885b29b9190a8d91c70fa1b4476ff3c]
link UserPredicateFactory to OrgPredicateFactory--><!--MD5=[af56cbf193063fa4163517b1e6abce94]
@startuml
'top to bottom direction
'left to right direction
package 数据{
    class User {
        Long id
        String name
        Dept dept
    }
    
    
    class Dept {
        Long id
        String name
        Org org
    }
    
    class Org {
        Long id
        String name
    }
}
package 查询工厂{
    abstract UserPredicateFactory{
        getUserPredicate()
        getDeptPredicate()
        getOrgPredicate()
    }
    abstract DeptPredicateFactory{
        getUserPredicate() *交叉连接点
        getDeptPredicate()
        getOrgPredicate()
    }
    abstract OrgPredicateFactory{
        getUserPredicate() *交叉连接点
        getDeptPredicate() *交叉连接点
        getOrgPredicate()
    }
}

User *- - Dept
Dept *- - Org

'UserPredicateFactory o- - User
'UserPredicateFactory o- - Dept
'UserPredicateFactory o- - Org
'
'DeptPredicateFactory o- - User
'DeptPredicateFactory o- - Dept
'DeptPredicateFactory o- - Org
'
'OrgPredicateFactory o- - User
'OrgPredicateFactory o- - Dept
'OrgPredicateFactory o- - Org


@enduml

@startuml
package 数据{
    class User {
        Long id
        String name
        Dept dept
    }
    
    
    class Dept {
        Long id
        String name
        Org org
    }
    
    class Org {
        Long id
        String name
    }
}
package 查询工厂{
    abstract UserPredicateFactory{
        getUserPredicate()
        getDeptPredicate()
        getOrgPredicate()
    }
    abstract DeptPredicateFactory{
        getUserPredicate() *交叉连接点
        getDeptPredicate()
        getOrgPredicate()
    }
    abstract OrgPredicateFactory{
        getUserPredicate() *交叉连接点
        getDeptPredicate() *交叉连接点
        getOrgPredicate()
    }
}

User *- - Dept
Dept *- - Org



@enduml

PlantUML version 1.2020.23(Mon Dec 14 03:14:58 CST 2020)
(GPL source distribution)
Java Runtime: OpenJDK Runtime Environment
JVM: OpenJDK 64-Bit Server VM
Default Encoding: UTF-8
Language: zh
Country: CN
--></g></svg>